name p3_grf_mean_speed_1.2
datacolumns 13
datarows 28
range 0.0000000000 0.2700000000
endheader
time	grf_x_l_mean	grf_x_l_var	grf_y_l_mean	grf_y_l_var	grf_z_l_mean	grf_z_l_var	grf_x_r_mean	grf_x_r_var	grf_y_r_mean	grf_y_r_var	grf_z_r_mean	grf_z_r_var
0.0000000000	149.9069983431	1.0000000000	971.7941865148	1.0000000000	0.0000000000	0.0000000000	12.5394405968	1.0000000000	11.0331599524	1.0000000000	0.0000000000	0.0000000000
0.0100000000	162.3166388883	1.0000000000	956.2108554245	1.0000000000	0.0000000000	0.0000000000	21.7293567692	1.0000000000	46.9072861581	1.0000000000	0.0000000000	0.0000000000
0.0200000000	174.2009300314	1.0000000000	927.7740151897	1.0000000000	0.0000000000	0.0000000000	26.3683438892	1.0000000000	105.6241499086	1.0000000000	0.0000000000	0.0000000000
0.0300000000	184.2754012379	1.0000000000	885.1368869015	1.0000000000	0.0000000000	0.0000000000	15.8839161406	1.0000000000	179.6184709073	1.0000000000	0.0000000000	0.0000000000
0.0400000000	190.4050968690	1.0000000000	827.0047124639	1.0000000000	0.0000000000	0.0000000000	-9.9859011403	1.0000000000	260.8626495262	1.0000000000	0.0000000000	0.0000000000
0.0500000000	192.7811549931	1.0000000000	754.0577495940	1.0000000000	0.0000000000	0.0000000000	-40.6205487379	1.0000000000	346.6105576890	1.0000000000	0.0000000000	0.0000000000
0.0600000000	189.6271091974	1.0000000000	667.2941479022	1.0000000000	0.0000000000	0.0000000000	-70.0288512212	1.0000000000	432.1794659534	1.0000000000	0.0000000000	0.0000000000
0.0700000000	179.1538415684	1.0000000000	567.8964487324	1.0000000000	0.0000000000	0.0000000000	-96.4611806290	1.0000000000	511.1304477544	1.0000000000	0.0000000000	0.0000000000
0.0800000000	161.1771068164	1.0000000000	460.4307561086	1.0000000000	0.0000000000	0.0000000000	-118.1532454099	1.0000000000	580.9830513795	1.0000000000	0.0000000000	0.0000000000
0.0900000000	135.5098258375	1.0000000000	352.1843044749	1.0000000000	0.0000000000	0.0000000000	-136.8089832325	1.0000000000	642.8706583502	1.0000000000	0.0000000000	0.0000000000
0.1000000000	104.6971252527	1.0000000000	251.2593804569	1.0000000000	0.0000000000	0.0000000000	-152.3957149973	1.0000000000	697.7822540925	1.0000000000	0.0000000000	0.0000000000
0.1100000000	73.8580762952	1.0000000000	165.5413498294	1.0000000000	0.0000000000	0.0000000000	-163.1645766387	1.0000000000	747.4464783848	1.0000000000	0.0000000000	0.0000000000
0.1200000000	47.1422785875	1.0000000000	99.3592690137	1.0000000000	0.0000000000	0.0000000000	-169.3348048352	1.0000000000	793.1269503468	1.0000000000	0.0000000000	0.0000000000
0.1300000000	27.1914611645	1.0000000000	52.3306912663	1.0000000000	0.0000000000	0.0000000000	-169.6767583782	1.0000000000	833.7146025654	1.0000000000	0.0000000000	0.0000000000
0.1400000000	13.5775429841	1.0000000000	22.1407105606	1.0000000000	0.0000000000	0.0000000000	-164.5530996580	1.0000000000	867.7185925312	1.0000000000	0.0000000000	0.0000000000
0.1500000000	5.0285136070	1.0000000000	5.8602346069	1.0000000000	0.0000000000	0.0000000000	-155.3645307929	1.0000000000	893.8301675978	1.0000000000	0.0000000000	0.0000000000
0.1600000000	0.0000000000	1.0000000000	0.0000000000	1.0000000000	0.0000000000	0.0000000000	-143.0561638481	1.0000000000	910.3126217975	1.0000000000	0.0000000000	0.0000000000
0.1700000000	0.0000000000	1.0000000000	0.0000000000	1.0000000000	0.0000000000	0.0000000000	-129.4935108715	1.0000000000	916.1968918203	1.0000000000	0.0000000000	0.0000000000
0.1800000000	0.0000000000	1.0000000000	0.0000000000	1.0000000000	0.0000000000	0.0000000000	-116.0250813786	1.0000000000	911.7912915052	1.0000000000	0.0000000000	0.0000000000
0.1900000000	0.0000000000	1.0000000000	0.0000000000	1.0000000000	0.0000000000	0.0000000000	-103.1254472381	1.0000000000	897.9270071832	1.0000000000	0.0000000000	0.0000000000
0.2000000000	0.5996298001	1.0000000000	0.6640751631	1.0000000000	0.0000000000	0.0000000000	-91.5127426196	1.0000000000	876.2093910783	1.0000000000	0.0000000000	0.0000000000
0.2100000000	1.1761559848	1.0000000000	1.0807275211	1.0000000000	0.0000000000	0.0000000000	-80.7883219283	1.0000000000	849.5528120535	1.0000000000	0.0000000000	0.0000000000
0.2200000000	1.4827967862	1.0000000000	1.1202607884	1.0000000000	0.0000000000	0.0000000000	-70.5628094713	1.0000000000	820.7298159449	1.0000000000	0.0000000000	0.0000000000
0.2300000000	1.6621193271	1.0000000000	0.9000279418	1.0000000000	0.0000000000	0.0000000000	-60.8270138829	1.0000000000	791.7971494531	1.0000000000	0.0000000000	0.0000000000
0.2400000000	1.8636561779	1.0000000000	0.6028122773	1.0000000000	0.0000000000	0.0000000000	-51.2645203813	1.0000000000	764.7791874468	1.0000000000	0.0000000000	0.0000000000
0.2500000000	1.8748416506	1.0000000000	0.2817971901	1.0000000000	0.0000000000	0.0000000000	-42.0846401515	1.0000000000	740.9931362134	1.0000000000	0.0000000000	0.0000000000
0.2600000000	0.0000000000	1.0000000000	0.0000000000	1.0000000000	0.0000000000	0.0000000000	-33.5118008112	1.0000000000	720.8613022781	1.0000000000	0.0000000000	0.0000000000
0.2700000000	0.0000000000	1.0000000000	0.0000000000	1.0000000000	0.0000000000	0.0000000000	-25.7117534777	1.0000000000	704.7246873211	1.0000000000	0.0000000000	0.0000000000
